<svg width="16" height="16" viewBox="0 0 16 16" fill="none" xmlns="http://www.w3.org/2000/svg">
            <path d="M13.4156 2.125C13.2423 2.13265 13.0807 2.18315 12.9385 2.24063C12.8053 2.29421 12.2964 2.51249 11.4948 2.85625C10.6925 3.20032 9.63013 3.65642 8.49688 4.14375C6.23039 5.11842 3.68225 6.21556 2.37709 6.77709C2.32801 6.79819 2.15676 6.8529 1.97501 6.99479C1.79325 7.13669 1.60001 7.43071 1.60001 7.75834C1.60001 8.02252 1.72591 8.28497 1.88438 8.44167C2.04285 8.59837 2.21054 8.67577 2.35417 8.73438C2.87533 8.94702 4.49166 9.60846 4.79688 9.73334C4.9043 10.0624 5.48933 11.852 5.62501 12.2906C5.71444 12.5801 5.79958 12.7613 5.91042 12.9052C5.96584 12.9771 6.03027 13.0402 6.10834 13.0896C6.13954 13.1093 6.17376 13.1245 6.20834 13.1385L6.21042 13.1396C6.21839 13.1428 6.22526 13.1482 6.23334 13.151C6.24858 13.1564 6.25878 13.157 6.27917 13.1615C6.36041 13.1877 6.44243 13.2042 6.51563 13.2042C6.82772 13.2042 7.01876 13.0323 7.01876 13.0323L7.03021 13.024L8.63542 11.6354L10.5823 13.4771C10.6097 13.5158 10.8654 13.8667 11.4292 13.8667C11.7639 13.8667 12.0295 13.6987 12.2 13.5198C12.3705 13.3409 12.4767 13.153 12.5219 12.9167V12.9156C12.5641 12.6923 14.3583 3.48125 14.3583 3.48125L14.3552 3.49375C14.4077 3.25401 14.4215 3.03074 14.3635 2.81042C14.3056 2.59009 14.1529 2.37914 13.9635 2.26563C13.7742 2.15214 13.589 2.11735 13.4156 2.125ZM13.3156 3.23959C13.3131 3.25515 13.3175 3.24732 13.3135 3.26563L13.3125 3.27188L13.3115 3.27813C13.3115 3.27813 11.5395 12.3714 11.474 12.7177C11.4788 12.6916 11.4568 12.7436 11.4344 12.775C11.4026 12.7531 11.3375 12.725 11.3375 12.725L11.3271 12.7135L8.66771 10.1979L6.78751 11.8229L7.34688 9.58334C7.34688 9.58334 10.8435 5.96379 11.0542 5.75313C11.2238 5.58459 11.2594 5.52584 11.2594 5.46771C11.2594 5.38984 11.2188 5.33334 11.1281 5.33334C11.0465 5.33334 10.9368 5.41267 10.8781 5.45C10.1138 5.93723 6.75831 7.89288 5.25417 8.76771C5.01514 8.66989 3.35449 7.99012 2.79167 7.76042C2.79593 7.75855 2.79453 7.75921 2.79896 7.75729C4.10447 7.19562 6.65154 6.09849 8.91771 5.12396C10.0508 4.63669 11.114 4.18025 11.9156 3.83646C12.705 3.49797 13.2534 3.26501 13.3156 3.23959Z" fill="#C16548"></path>
</svg>