<svg width="21" height="21" viewBox="0 0 21 21" fill="none" xmlns="http://www.w3.org/2000/svg">
    <path d="M9 6H10.75V10.375H15.125V12.125H9V6Z" fill="#C9EA32"></path>
    <path fill-rule="evenodd" clip-rule="evenodd" d="M19.25 10.5C19.25 15.3326 15.3326 19.25 10.5 19.25C5.66738 19.25 1.75 15.3326 1.75 10.5C1.75 5.66738 5.66738 1.75 10.5 1.75C15.3326 1.75 19.25 5.66738 19.25 10.5ZM17.5 10.5C17.5 12.3565 16.7625 14.137 15.4497 15.4497C14.137 16.7625 12.3565 17.5 10.5 17.5C8.64349 17.5 6.86301 16.7625 5.55025 15.4497C4.2375 14.137 3.5 12.3565 3.5 10.5C3.5 8.64349 4.2375 6.86301 5.55025 5.55025C6.86301 4.2375 8.64349 3.5 10.5 3.5C12.3565 3.5 14.137 4.2375 15.4497 5.55025C16.7625 6.86301 17.5 8.64349 17.5 10.5Z" fill="#C9EA32"></path>
</svg>